<svg width="310" height="31" viewBox="0 0 310 31" fill="none" xmlns="http://www.w3.org/2000/svg">
<g clip-path="url(#clip0_1023_7286)">
<path d="M46.7424 30.8191C36.163 32.206 38.7363 25.3925 42.5898 17.8205C50.4359 14.028 57.7598 11.085 64.0055 11.8565C75.0484 13.2218 61.647 28.8643 46.7424 30.8191Z" fill="#141416"/>
<path d="M42.5897 17.8207C30.4016 23.7023 16.9415 31.6255 4.23952 30.8236C-13.1541 29.7314 27.6178 1.07301 42.7582 0.0371172C53.1902 -0.678042 47.0371 9.07411 42.5897 17.8207Z" fill="#141416"/>
<path d="M81.5439 25.7898V5.18213H101.14C117.062 5.18213 121.07 10.0847 121.07 14.932V15.763C121.07 20.444 117.619 25.7898 101.177 25.7898H81.5439ZM92.0839 10.5834V20.3332H99.9155C109.119 20.3332 110.121 17.3141 110.121 15.5137V15.3475C110.121 13.5471 109.119 10.5834 99.9155 10.5834H92.0839Z" fill="#141416"/>
<path d="M134.126 10.1956V13.741H146.225C148.563 13.741 149.417 12.9654 149.417 11.9682V11.9405C149.417 10.9711 148.601 10.1956 146.225 10.1956H134.126ZM134.126 18.7267V25.7898H123.586V5.18213H148.675C156.728 5.18213 160.291 7.12101 160.291 10.4725V10.7772C160.291 13.7686 156.802 15.0151 154.724 15.3752C158.139 15.9568 160.402 17.6188 160.402 20.2778V23.3246C160.402 24.765 160.663 25.2913 160.922 25.6514V25.7898H150.16C149.9 25.5682 149.825 25.2913 149.825 24.7096V22.2998C149.825 19.9454 148.378 18.7267 144.221 18.7267H134.126Z" fill="#141416"/>
<path d="M186.497 17.3141L181.858 10.2233L177.33 17.3141H186.497ZM192.027 25.7898L189.875 22.466H174.101L171.986 25.7898H161.297L174.955 5.18213H189.132L203.569 25.7898H192.027Z" fill="#141416"/>
<path d="M204.772 5.18213H234.723V10.2233H215.201V12.7992H234.315V17.868H215.201V25.7898H204.772V5.18213Z" fill="#141416"/>
<path d="M248.851 25.7898V10.8049H236.938V5.18213H271.304V10.8049H259.391V25.7898H248.851Z" fill="#141416"/>
<path d="M292.89 26.1778H289.512C274.259 26.1778 272.663 21.5521 272.663 18.8654V18.5884H284.242C284.353 19.6963 285.133 21.4968 291.145 21.4968H291.479C297.381 21.4968 298.234 20.555 298.234 19.5579V19.5302C298.234 18.4776 297.529 17.8129 291.74 17.6744L286.618 17.5636C275.929 17.342 273.071 14.5444 273.071 11.3591V11.1098C273.071 7.75831 276.077 4.82227 288.956 4.82227H292.259C305.917 4.82227 309.034 8.06301 309.034 11.3314V11.553H297.566C297.455 10.8051 296.861 9.3648 290.886 9.3648H290.514C284.985 9.3648 284.428 10.085 284.428 10.8882V10.916C284.428 11.7469 285.244 12.4117 290.44 12.4948L295.414 12.5778C305.917 12.7995 309.999 14.6276 309.999 18.7823V19.1701C309.999 22.6324 307.401 26.1778 292.89 26.1778Z" fill="#141416"/>
</g>
<defs>
<clipPath id="clip0_1023_7286">
<rect width="310" height="31" fill="white"/>
</clipPath>
</defs>
</svg>
