<svg width="260" height="26" viewBox="0 0 260 26" fill="none" xmlns="http://www.w3.org/2000/svg">
<g clip-path="url(#clip0_929_4326)">
<path d="M39.2033 25.8486C30.3302 27.0118 32.4885 21.2973 35.7205 14.9465C42.301 11.7657 48.4437 9.29739 53.682 9.9445C62.9438 11.0896 51.7039 24.2091 39.2033 25.8486Z" fill="white"/>
<path d="M35.7204 14.9464C25.4981 19.8794 14.209 26.5246 3.55573 25.8521C-11.0325 24.936 23.1633 0.899947 35.8617 0.0311305C44.6111 -0.568681 39.4505 7.61055 35.7204 14.9464Z" fill="white"/>
<path d="M68.3911 21.6306V4.34668H84.8265C98.1803 4.34668 101.542 8.45855 101.542 12.524V13.2209C101.542 17.1469 98.6472 21.6306 84.8576 21.6306H68.3911ZM77.2311 8.87675V17.054H83.7995C91.5187 17.054 92.3592 14.5219 92.3592 13.0118V12.8725C92.3592 11.3625 91.5187 8.87675 83.7995 8.87675H77.2311Z" fill="white"/>
<path d="M112.493 8.55152V11.525H122.641C124.601 11.525 125.318 10.8746 125.318 10.0383V10.015C125.318 9.20198 124.633 8.55152 122.641 8.55152H112.493ZM112.493 15.7067V21.6306H103.653V4.34668H124.695C131.45 4.34668 134.438 5.97284 134.438 8.78378V9.03933C134.438 11.5483 131.512 12.5937 129.769 12.8957C132.633 13.3835 134.531 14.7774 134.531 17.0076V19.563C134.531 20.771 134.749 21.2124 134.967 21.5144V21.6306H125.94C125.722 21.4447 125.66 21.2124 125.66 20.7245V18.7034C125.66 16.7288 124.446 15.7067 120.96 15.7067H112.493Z" fill="white"/>
<path d="M156.416 14.5219L152.526 8.57474L148.728 14.5219H156.416ZM161.055 21.6306L159.249 18.8428H146.02L144.246 21.6306H135.281L146.736 4.34668H158.627L170.735 21.6306H161.055Z" fill="white"/>
<path d="M171.745 4.34668H196.865V8.57474H180.491V10.7352H196.522V14.9865H180.491V21.6306H171.745V4.34668Z" fill="white"/>
<path d="M208.713 21.6306V9.06256H198.721V4.34668H227.545V9.06256H217.553V21.6306H208.713Z" fill="white"/>
<path d="M245.65 21.9555H242.817C230.024 21.9555 228.686 18.0759 228.686 15.8225V15.5902H238.397C238.49 16.5195 239.144 18.0295 244.187 18.0295H244.467C249.417 18.0295 250.132 17.2397 250.132 16.4033V16.3801C250.132 15.4973 249.541 14.9398 244.685 14.8236L240.39 14.7307C231.425 14.5449 229.028 12.1985 229.028 9.52697V9.31787C229.028 6.50692 231.549 4.04443 242.35 4.04443H245.121C256.576 4.04443 259.19 6.76247 259.19 9.50374V9.68955H249.572C249.479 9.06232 248.981 7.8543 243.969 7.8543H243.658C239.02 7.8543 238.553 8.45831 238.553 9.132V9.15528C238.553 9.8522 239.238 10.4098 243.595 10.4794L247.767 10.5491C256.576 10.735 260 12.2682 260 15.7529V16.0781C260 18.982 257.821 21.9555 245.65 21.9555Z" fill="white"/>
</g>
<defs>
<clipPath id="clip0_929_4326">
<rect width="260" height="26" fill="white"/>
</clipPath>
</defs>
</svg>
