<svg width="20" height="20" viewBox="0 0 20 20" fill="none" xmlns="http://www.w3.org/2000/svg">
<path fill-rule="evenodd" clip-rule="evenodd" d="M10.4959 9.49691C10.625 9.57166 10.7843 9.57166 10.9134 9.49691L17.0457 5.94627C17.1798 5.86866 17.2126 5.68797 17.1032 5.57837C16.9719 5.44687 16.8269 5.32823 16.6621 5.23197L11.9321 2.5078C11.1763 2.06613 10.2371 2.06697 9.48545 2.50697L4.75048 5.2328C4.58592 5.32978 4.44096 5.44887 4.30955 5.58095C4.20043 5.69061 4.23338 5.87097 4.36726 5.94849L10.4959 9.49691Z" fill="#4D88F6"/>
<path fill-rule="evenodd" clip-rule="evenodd" d="M11.5439 10.5766C11.4152 10.6511 11.3359 10.7886 11.3359 10.9372V17.584C11.3359 17.7482 11.4923 17.8679 11.6439 17.8046C11.7418 17.7638 11.8377 17.7162 11.9309 17.662L16.6659 14.9361C17.4184 14.4945 17.8851 13.6836 17.8851 12.8178V7.35117C17.8851 7.3307 17.8844 7.31035 17.8833 7.2901C17.8732 7.11678 17.6711 7.02905 17.5209 7.11604L11.5439 10.5766Z" fill="#4D88F6"/>
<path fill-rule="evenodd" clip-rule="evenodd" d="M10.0854 10.9437C10.0854 10.795 10.0062 10.6576 9.87751 10.5831L3.89514 7.11898C3.745 7.03204 3.54275 7.11957 3.53294 7.29279C3.53185 7.31209 3.53125 7.33147 3.53125 7.35095V12.8176C3.53125 13.6834 3.99875 14.4959 4.75375 14.9368L9.48376 17.6609C9.57918 17.7163 9.67751 17.7649 9.77809 17.8065C9.92968 17.8692 10.0854 17.7495 10.0854 17.5855V10.9437Z" fill="#4D88F6"/>
</svg>
