<svg width="20" height="20" viewBox="0 0 20 20" fill="none" xmlns="http://www.w3.org/2000/svg">
<path fill-rule="evenodd" clip-rule="evenodd" d="M3.35645 12.808V7.1905C3.35645 4.75967 4.22395 3.72217 6.25561 3.72217H7.69645C8.01478 3.72217 8.31895 3.87383 8.51058 4.1305L9.16891 5.0055C9.59391 5.5705 10.2722 5.90967 10.9831 5.91217H12.1997C13.7722 5.91217 14.5822 6.40217 14.9189 7.59883H10.1506C8.89141 7.59883 7.78144 8.49133 7.51061 9.723L6.43478 14.6805C6.32728 15.1463 5.96395 15.5855 5.55228 15.7505C5.23978 15.8763 4.91228 15.8322 4.57978 15.638C3.78728 15.0613 3.35645 14.1105 3.35645 12.808ZM17.8631 8.49133C17.4847 8.03383 16.9047 7.748 16.2064 7.64634C15.7956 5.64883 14.4881 4.66217 12.1997 4.66217H10.9856C10.6647 4.66133 10.3589 4.508 10.1672 4.253L9.50974 3.3805C9.08474 2.81133 8.40641 2.47217 7.69645 2.47217H6.25561C3.50228 2.47217 2.10645 4.05967 2.10645 7.1905V12.808C2.10645 14.4238 2.68061 15.6822 3.67561 16.498C3.69811 16.5272 3.71395 16.5597 3.74228 16.5847C3.76728 16.6063 4.12895 16.9097 4.79978 17.1672C4.83978 17.183 4.87978 17.2005 4.92145 17.2155C5.14228 17.293 5.39728 17.3597 5.67978 17.4147C5.76061 17.4305 5.84228 17.4438 5.92478 17.4555C6.20561 17.498 6.50311 17.5288 6.83728 17.5288H14.6706C15.9331 17.5288 17.0439 16.633 17.3139 15.3905L18.2939 10.5672C18.4956 9.52634 18.1706 8.86383 17.8631 8.49133Z" fill="white"/>
</svg>
