<svg width="20" height="21" viewBox="0 0 20 21" fill="none" xmlns="http://www.w3.org/2000/svg">
<path fill-rule="evenodd" clip-rule="evenodd" d="M14.6018 10.0021C14.1576 10.0021 13.7951 9.6375 13.7951 9.18978C13.7951 8.74126 14.1576 8.3767 14.6018 8.3767C15.0459 8.3767 15.4084 8.74126 15.4084 9.18978C15.4084 9.6375 15.0459 10.0021 14.6018 10.0021ZM11.6676 6.95542C11.2226 6.95542 10.8609 6.59086 10.8609 6.14314C10.8609 5.69458 11.2226 5.33002 11.6676 5.33002C12.1118 5.33002 12.4734 5.69458 12.4734 6.14314C12.4734 6.59086 12.1118 6.95542 11.6676 6.95542ZM7.81924 7.8727C7.37507 7.8727 7.0134 7.5073 7.0134 7.05958C7.0134 6.61102 7.37507 6.2473 7.81924 6.2473C8.26424 6.2473 8.62592 6.61102 8.62592 7.05958C8.62592 7.5073 8.26424 7.8727 7.81924 7.8727ZM5.6984 11.32C5.25424 11.32 4.89257 10.9555 4.89257 10.5069C4.89257 10.0583 5.25424 9.69378 5.6984 9.69378C6.1434 9.69378 6.50424 10.0583 6.50424 10.5069C6.50424 10.9555 6.1434 11.32 5.6984 11.32ZM16.3984 5.42998C15.0551 3.80458 12.9334 2.90578 10.4251 2.8999H10.4018C6.1484 2.8999 3.0159 5.5879 2.4184 9.75258C2.07924 12.1121 2.8484 14.5061 4.53007 16.3205C6.04174 17.9527 8.06924 18.8599 10.1659 18.8599C10.3484 18.8599 10.5326 18.8531 10.7168 18.8397C11.4476 18.7834 12.0134 18.4777 12.3084 17.9779C12.5993 17.4865 12.6034 16.864 12.3201 16.2265C12.1451 15.8317 11.9818 15.2773 12.2076 14.8791C12.4143 14.5145 12.8968 14.3885 13.2651 14.3465C14.9859 14.1533 16.3834 13.394 17.1976 12.2071C18.6309 10.1239 17.8809 7.22002 16.3984 5.42998Z" fill="#9F36E5"/>
</svg>
