<svg width="20" height="20" viewBox="0 0 20 20" fill="none" xmlns="http://www.w3.org/2000/svg">
<path fill-rule="evenodd" clip-rule="evenodd" d="M9.16632 14.0827C9.30441 14.0827 9.41632 13.9707 9.41632 13.8327V9.66517C9.41632 7.73602 10.9863 6.16602 12.9163 6.16602H15.6663C15.7697 6.16602 15.8703 6.17588 15.9678 6.19439C16.1452 6.22807 16.333 6.10568 16.333 5.9251V5.58268C16.333 5.55852 16.3305 5.53352 16.3263 5.51018C16.0405 3.88935 14.5388 2.66602 12.8338 2.66602H5.66634C3.69051 2.66602 2.08301 4.27352 2.08301 6.24935V10.4985C2.08301 12.4743 3.69051 14.0827 5.66634 14.0827H6.86884L6.55134 16.041H4.88301C4.53801 16.041 4.25801 16.321 4.25801 16.666C4.25801 17.011 4.53801 17.291 4.88301 17.291H8.96632C9.31132 17.291 9.59132 17.011 9.59132 16.666C9.59132 16.321 9.31132 16.041 8.96632 16.041H7.81717L8.13467 14.0827H9.16632Z" fill="#FF3B89"/>
<path fill-rule="evenodd" clip-rule="evenodd" d="M14.3262 15.3803C13.9762 15.3803 13.692 15.0962 13.692 14.7462C13.692 14.3962 13.9762 14.112 14.3262 14.112C14.6762 14.112 14.9603 14.3962 14.9603 14.7462C14.9603 15.0962 14.6762 15.3803 14.3262 15.3803ZM15.667 7.41699H12.917C11.697 7.41699 10.667 8.447 10.667 9.66617V15.0828C10.667 16.3237 11.6762 17.3328 12.917 17.3328H15.667C16.9078 17.3328 17.917 16.3237 17.917 15.0828V9.66617C17.917 8.447 16.887 7.41699 15.667 7.41699Z" fill="#FF3B89"/>
</svg>
