<svg width="20" height="20" viewBox="0 0 20 20" fill="none" xmlns="http://www.w3.org/2000/svg">
<path fill-rule="evenodd" clip-rule="evenodd" d="M3.01758 7.24609C2.67258 7.24609 2.39258 7.52609 2.39258 7.87109V12.2878C2.39258 12.6328 2.67258 12.9128 3.01758 12.9128C3.36258 12.9128 3.64258 12.6328 3.64258 12.2878V7.87109C3.64258 7.52609 3.36258 7.24609 3.01758 7.24609Z" fill="#11D55D"/>
<path fill-rule="evenodd" clip-rule="evenodd" d="M18.0176 7.16211C17.6726 7.16211 17.3926 7.44211 17.3926 7.78711V12.2038C17.3926 12.5488 17.6726 12.8288 18.0176 12.8288C18.3626 12.8288 18.6426 12.5488 18.6426 12.2038V7.78711C18.6426 7.44211 18.3626 7.16211 18.0176 7.16211Z" fill="#11D55D"/>
<path fill-rule="evenodd" clip-rule="evenodd" d="M11.259 14.5126C11.1673 14.8376 10.859 15.0792 10.5173 15.0792C10.1006 15.0792 9.74229 14.7126 9.74229 14.2876C9.74229 13.8542 10.1006 13.4959 10.5173 13.4959C10.859 13.4959 11.1423 13.6709 11.2673 13.9459C11.3506 14.1292 11.3423 14.3376 11.259 14.5126ZM12.6006 2.2876H8.60062C6.77559 2.2876 5.35059 3.7126 5.35059 5.5376V14.4542C5.35059 16.2792 6.77559 17.7042 8.60062 17.7042H12.5756C12.634 17.7042 12.684 17.7126 12.734 17.7126C13.4923 17.7126 14.2256 17.4042 14.809 16.8542C15.4673 16.2292 15.8506 15.3542 15.8506 14.4542V5.5376C15.8506 3.7126 14.4256 2.2876 12.6006 2.2876Z" fill="#11D55D"/>
</svg>
