<svg width="20" height="20" viewBox="0 0 20 20" fill="none" xmlns="http://www.w3.org/2000/svg">
<path fill-rule="evenodd" clip-rule="evenodd" d="M12.6872 7.33266C12.2397 7.33266 11.8747 6.9685 11.8747 6.52016C11.873 6.30766 11.9572 6.10266 12.1105 5.94766C12.2638 5.79266 12.468 5.70766 12.6863 5.70766C13.1347 5.70766 13.5005 6.07183 13.5005 6.52016C13.5005 6.9685 13.1355 7.33266 12.6872 7.33266ZM11.4772 10.0877H8.52384C8.17884 10.0877 7.89884 9.80766 7.89884 9.46266C7.89884 9.11766 8.17884 8.83766 8.52384 8.83766H11.4772C11.8222 8.83766 12.1022 9.11766 12.1022 9.46266C12.1022 9.80766 11.8222 10.0877 11.4772 10.0877ZM7.27051 7.33266C6.82301 7.33266 6.45801 6.9685 6.45801 6.52016C6.45634 6.30766 6.54051 6.10266 6.69384 5.94766C6.84717 5.79266 7.05134 5.70766 7.26967 5.70766C7.71801 5.70766 8.08384 6.07183 8.08384 6.52016C8.08384 6.9685 7.71884 7.33266 7.27051 7.33266ZM9.99967 2.0835C5.63467 2.0835 2.08301 5.63433 2.08301 10.0002C2.08301 14.3652 5.63467 17.9168 9.99967 17.9168C14.3655 17.9168 17.9163 14.3652 17.9163 10.0002C17.9163 5.63433 14.3655 2.0835 9.99967 2.0835Z" fill="#FF774D"/>
</svg>
