<svg width="20" height="20" viewBox="0 0 20 20" fill="none" xmlns="http://www.w3.org/2000/svg">
<path fill-rule="evenodd" clip-rule="evenodd" d="M17.7157 10.0615C17.5398 10.6773 17.1352 11.2051 16.5809 11.5394C15.9827 11.9001 15.1382 11.9001 13.3699 11.9001C12.5606 11.9001 12.2263 12.2432 12.5078 13.2373C12.8773 14.5744 13.238 17.0992 11.8128 17.5127C11.1794 17.7062 10.4668 17.4423 10.0622 16.9233C9.10449 15.6991 8.15461 14.4748 7.20519 13.2431C7.11001 13.1197 7.10956 12.9494 7.18819 12.8148C7.30355 12.6173 7.39465 12.4041 7.45822 12.1816C7.56379 11.7945 7.56379 11.4426 7.56379 10.8621V4.50164C7.56379 4.07447 7.56379 3.77389 7.52151 3.4923C7.49774 3.33397 7.56399 3.17039 7.7072 3.09872C8.3644 2.7698 9.08057 2.57022 9.82465 2.53114C11.3026 2.44314 13.2556 2.3903 14.6631 2.53989C15.7012 2.66305 16.8976 3.4548 17.3287 4.60722C17.9532 6.32272 18.0764 8.77714 17.7157 10.0615Z" fill="black"/>
<path fill-rule="evenodd" clip-rule="evenodd" d="M5.11852 12.8852C4.91619 12.938 4.66107 12.938 4.15963 12.938C3.65819 12.938 3.41187 12.938 3.20954 12.8852C2.6905 12.7357 2.28583 12.331 2.14508 11.8207C2.0835 11.6096 2.0835 11.3633 2.0835 10.8618V4.50148C2.0835 4.00006 2.0835 3.75373 2.14508 3.54256C2.28583 3.0324 2.6905 2.62765 3.20954 2.47815C3.41187 2.42531 3.65819 2.42531 4.15963 2.42531C4.66107 2.42531 4.91619 2.42531 5.11852 2.47815C5.63755 2.62765 6.04223 3.0324 6.18298 3.54256C6.24456 3.75373 6.24456 4.00006 6.24456 4.50148V10.8618C6.24456 11.3633 6.24456 11.6096 6.18298 11.8207C6.04223 12.331 5.63755 12.7357 5.11852 12.8852Z" fill="black"/>
</svg>
