<svg width="24" height="24" viewBox="0 0 24 24" fill="none" xmlns="http://www.w3.org/2000/svg">
<path fill-rule="evenodd" clip-rule="evenodd" d="M18.753 8.64972L15.3004 8.15721C15.1051 8.13304 14.9349 8.0122 14.8448 7.83386L13.3055 4.78378C13.303 4.78044 13.3013 4.77711 13.2996 4.77294C13.1581 4.51377 12.9383 4.29626 12.6731 4.15709C11.9598 3.79791 11.0748 4.07459 10.6983 4.78378L9.15732 7.83303C9.06637 8.01137 8.89458 8.13304 8.69164 8.15804L5.2466 8.64972C4.91313 8.69889 4.62092 8.84556 4.40365 9.07221C4.13586 9.34639 3.99271 9.70807 4.00029 10.0897C4.00787 10.4714 4.16534 10.8256 4.44155 11.0873L6.94007 13.4673C7.07901 13.5957 7.14385 13.7915 7.11017 13.9824L6.51986 17.3308C6.46933 17.6433 6.52322 17.9658 6.66975 18.2325C6.85333 18.5742 7.15901 18.8233 7.53122 18.9367C7.67185 18.9792 7.81585 19 7.95817 19C8.19227 19 8.42385 18.9433 8.63353 18.8325L11.7156 17.2558C11.8941 17.1616 12.1089 17.1616 12.2916 17.2574L15.3585 18.8275C15.6339 18.9775 15.948 19.0317 16.2789 18.9817C17.0697 18.8533 17.6112 18.1116 17.4823 17.3241L16.8928 13.9824C16.8583 13.7857 16.9223 13.5932 17.068 13.4548L19.5589 11.0873C19.7922 10.8648 19.9455 10.5673 19.9876 10.2497C20.0911 9.47306 19.5362 8.75472 18.753 8.64972Z" fill="#979797"/>
</svg>
