<svg width="20" height="20" viewBox="0 0 20 20" fill="none" xmlns="http://www.w3.org/2000/svg">
<path fill-rule="evenodd" clip-rule="evenodd" d="M17.7157 9.93999C17.5398 9.32416 17.1352 8.79633 16.5809 8.46208C15.9827 8.10137 15.1382 8.10137 13.3699 8.10137C12.5606 8.10137 12.2263 7.75828 12.5078 6.76419C12.8773 5.42703 13.238 2.90224 11.8128 2.48877C11.1794 2.29523 10.4668 2.55914 10.0622 3.07818C9.10449 4.3024 8.15461 5.52664 7.20519 6.75833C7.11001 6.88179 7.10956 7.05206 7.18819 7.18666C7.30355 7.38412 7.39465 7.59739 7.45822 7.81986C7.56379 8.20694 7.56379 8.55883 7.56379 9.13941V15.4998C7.56379 15.927 7.56379 16.2276 7.52151 16.5092C7.49774 16.6675 7.56399 16.8311 7.7072 16.9027C8.3644 17.2317 9.08057 17.4312 9.82465 17.4703C11.3026 17.5583 13.2556 17.6112 14.6631 17.4616C15.7012 17.3384 16.8976 16.5467 17.3287 15.3942C17.9532 13.6787 18.0764 11.2243 17.7157 9.93999Z" fill="black"/>
<path fill-rule="evenodd" clip-rule="evenodd" d="M5.11852 7.11626C4.91619 7.06348 4.66107 7.06348 4.15963 7.06348C3.65819 7.06348 3.41187 7.06348 3.20954 7.11626C2.6905 7.26581 2.28583 7.67048 2.14508 8.18072C2.0835 8.39182 2.0835 8.63815 2.0835 9.13965V15.5C2.0835 16.0014 2.0835 16.2477 2.14508 16.4589C2.28583 16.9691 2.6905 17.3738 3.20954 17.5233C3.41187 17.5762 3.65819 17.5762 4.15963 17.5762C4.66107 17.5762 4.91619 17.5762 5.11852 17.5233C5.63755 17.3738 6.04223 16.9691 6.18298 16.4589C6.24456 16.2477 6.24456 16.0014 6.24456 15.5V9.13965C6.24456 8.63815 6.24456 8.39182 6.18298 8.18072C6.04223 7.67048 5.63755 7.26581 5.11852 7.11626Z" fill="black"/>
</svg>
