<svg width="20" height="20" viewBox="0 0 20 20" fill="none" xmlns="http://www.w3.org/2000/svg">
<path d="M13.0943 3.1665C13.0549 3.36901 13.0353 3.57485 13.0357 3.78114C13.0357 5.63197 14.5383 7.13236 16.3918 7.13236C16.5959 7.13135 16.7995 7.11176 17 7.07382V13.7177C17 16.5128 15.3512 18.1665 12.552 18.1665H6.4553C3.64875 18.1665 2 16.5128 2 13.7177V7.62992C2 4.8348 3.64875 3.1665 6.4553 3.1665H13.0943ZM13.0972 8.16783C12.9343 8.19127 12.7878 8.27967 12.6913 8.41285L10.6834 10.9958L8.39717 9.19577C8.26664 9.09408 8.10059 9.04918 7.93651 9.07121C7.77243 9.09324 7.62415 9.18034 7.52516 9.31284L5.06302 12.4885C4.97647 12.5963 4.92988 12.7307 4.93112 12.8689L4.93328 12.9609C4.95715 13.2026 5.1229 13.4114 5.36031 13.4863C5.6274 13.5707 5.91781 13.4643 6.06693 13.2275L8.12604 10.5641L10.4123 12.3567C10.5423 12.4616 10.7095 12.5091 10.8753 12.4884C11.0412 12.4677 11.1915 12.3806 11.2916 12.247L13.6732 9.17382V9.15919C13.8771 8.88522 13.825 8.49892 13.5559 8.28845C13.4257 8.18791 13.2602 8.14438 13.0972 8.16783Z" fill="black"/>
<path opacity="0.4" d="M16.5833 5.66667C17.7339 5.66667 18.6667 4.73393 18.6667 3.58333C18.6667 2.43274 17.7339 1.5 16.5833 1.5C15.4327 1.5 14.5 2.43274 14.5 3.58333C14.5 4.73393 15.4327 5.66667 16.5833 5.66667Z" fill="black"/>
</svg>
