<svg width="20" height="20" viewBox="0 0 20 20" fill="none" xmlns="http://www.w3.org/2000/svg">
<path fill-rule="evenodd" clip-rule="evenodd" d="M9.86807 4.62592C9.52307 4.62592 9.24307 4.34592 9.24307 4.00092V2.24616C9.24307 2.10038 9.1184 1.98519 8.97357 2.00155C5.32154 2.41413 2.41393 5.32189 2.00155 8.974C1.98519 9.11884 2.10038 9.24342 2.24616 9.24342H4.0022C4.3472 9.24342 4.6272 9.52259 4.6272 9.86842C4.6272 10.2134 4.3472 10.4934 4.0022 10.4934H2.24625C2.10047 10.4934 1.98528 10.618 2.00164 10.7629C2.41438 14.4146 5.32183 17.3219 8.97357 17.7344C9.1184 17.7508 9.24307 17.6357 9.24307 17.4898V15.9351C9.24307 15.5901 9.52307 15.3101 9.86807 15.3101C10.2131 15.3101 10.4931 15.5901 10.4931 15.9351V17.4898C10.4931 17.6357 10.6177 17.7508 10.7625 17.7344C14.4142 17.3219 17.3217 14.4146 17.7345 10.7629C17.7508 10.618 17.6357 10.4934 17.4898 10.4934H15.9356C15.5906 10.4934 15.3106 10.2134 15.3106 9.86842C15.3106 9.52259 15.5906 9.24342 15.9356 9.24342H17.49C17.6357 9.24342 17.7509 9.11884 17.7346 8.974C17.3222 5.32187 14.4146 2.41411 10.7625 2.00155C10.6177 1.98519 10.4931 2.10038 10.4931 2.24615V4.00092C10.4931 4.34592 10.2131 4.62592 9.86807 4.62592ZM9.86873 12.6908C9.00123 12.6908 8.49207 12.2816 8.21707 11.9391C7.73457 11.3366 7.63707 10.5366 7.75457 10.0116C7.94457 9.16159 8.75707 7.95158 9.6054 7.25824L9.71065 7.17234C9.80265 7.0972 9.93482 7.0972 10.0269 7.17234L10.1321 7.25824C10.9796 7.95158 11.7921 9.16075 11.9821 10.0116C12.0996 10.5366 12.0021 11.3366 11.5196 11.9391C11.2446 12.2816 10.7354 12.6908 9.86873 12.6908Z" fill="black"/>
</svg>
