<svg width="21" height="20" viewBox="0 0 21 20" fill="none" xmlns="http://www.w3.org/2000/svg">
<path d="M20.7525 4.30776C20.7315 4.22358 20.6052 4.18149 20.5 4.20253C20.3947 4.22358 20.2895 4.26567 20.1843 4.28671C19.0057 4.5603 17.8483 4.5603 16.8381 4.28671L17.0275 3.99208C17.2169 3.6764 17.1327 3.27654 16.817 3.08713L16.4593 2.87668C16.312 2.7925 16.1436 2.75041 15.9542 2.7925C15.7858 2.83459 15.6385 2.93982 15.5543 3.08713L15.2807 3.52908C14.8809 3.19236 14.5862 2.77145 14.481 2.28741C14.481 2.26637 14.481 2.22428 14.46 2.20323V2.1401C14.46 2.07696 14.4179 2.03487 14.3547 2.01382C14.2916 1.99278 14.2285 1.99278 14.1864 2.03487C13.5971 2.39264 13.1341 2.87668 12.7553 3.4449C12.3975 4.01312 12.1871 4.66553 12.1029 5.33898C12.1029 5.40211 12.1239 5.46525 12.166 5.48629C12.2081 5.52838 12.2713 5.52838 12.3344 5.52838L12.3975 5.50734C12.4186 5.50734 12.4396 5.48629 12.4817 5.48629C12.9447 5.38107 13.4498 5.4442 13.9338 5.65465L11.0085 10.3898L8.06221 5.65465C8.54625 5.4442 9.05134 5.38107 9.51433 5.48629C9.53538 5.48629 9.55642 5.50734 9.59851 5.50734L9.66165 5.52838C9.72478 5.54943 9.78792 5.52838 9.83001 5.48629C9.8721 5.4442 9.89315 5.38107 9.89315 5.33898C9.83001 4.64448 9.59851 4.01312 9.24074 3.4449C8.88297 2.87668 8.39893 2.39264 7.80967 2.03487C7.76757 2.01382 7.70444 1.99278 7.6413 2.01382C7.57817 2.03487 7.55712 2.098 7.53608 2.1401V2.20323C7.53608 2.22428 7.53608 2.26637 7.51503 2.28741C7.40981 2.75041 7.13622 3.17131 6.71531 3.52908L6.44172 3.08713C6.35754 2.93982 6.21023 2.83459 6.04186 2.7925C5.8735 2.75041 5.70514 2.77145 5.53678 2.87668L5.17901 3.08713C5.03169 3.17131 4.92646 3.31863 4.88437 3.48699C4.84228 3.65535 4.86333 3.82372 4.96855 3.99208L5.15796 4.28671C4.14779 4.5603 2.9903 4.5603 1.81177 4.28671C1.70654 4.26567 1.60131 4.22358 1.47504 4.20253C1.39086 4.18149 1.28563 4.22358 1.26459 4.30776C0.801593 5.59152 0.94891 7.00155 1.68549 8.15904C2.40103 9.31653 3.60061 10.0742 4.94751 10.2215C4.94751 10.2215 4.94751 10.2215 4.96855 10.2215C5.05274 10.2215 5.13692 10.1163 5.15796 10.0321C5.17901 9.92684 5.20005 9.82162 5.2211 9.73744C5.49469 8.5589 6.02082 7.50664 6.69427 6.72796L9.99837 12.0314L6.84158 17.1033C6.65218 17.419 6.73636 17.8188 7.05204 18.0082L7.40981 18.2187C7.51503 18.2818 7.6413 18.3239 7.74653 18.3239C7.78862 18.3239 7.85176 18.3239 7.89385 18.3029C8.06221 18.2608 8.20953 18.1555 8.29371 18.0082L11.0085 13.6729L13.7023 18.0082C13.7865 18.1555 13.9338 18.2608 14.1022 18.3029C14.1443 18.3239 14.2074 18.3239 14.2495 18.3239C14.3758 18.3239 14.481 18.2818 14.5862 18.2187L14.944 18.0082C15.2597 17.8188 15.3439 17.419 15.1545 17.1033L11.9977 12.0314L15.3018 6.72796C15.9752 7.50664 16.5014 8.5589 16.7749 9.73744C16.796 9.84266 16.817 9.92684 16.8381 10.0321V10.0952C16.8591 10.1794 16.9223 10.2425 17.0064 10.2425H17.0275C18.3744 10.0742 19.574 9.33758 20.2895 8.18009C21.0471 7.00155 21.1945 5.59152 20.7525 4.30776Z" fill="black"/>
</svg>
